<svg xmlns="http://www.w3.org/2000/svg" width="2363" height="713" viewBox="0 0 2363 713">
  <defs>
    <style>
      .cls-1 {
        fill: #fff;
        fill-rule: evenodd;
      }
    </style>
  </defs>
  <path id="Color_Fill_1" data-name="Color Fill 1" class="cls-1" d="M149,89c33.372-.463,58.465,11.532,73,30q7.5,10.5,15,21c42.7-14.638,92.307-41.922,158-31l54,11c13.3,4.523,36.768,20.971,49,19,16.795-43.9,84.443-65.347,130-34,27.718,19.073,49.374,72.974,26,113-11.777,20.167-27.588,24.77-45,39l11,26,50,10,12,9V407l-12,9c-16.9,6.758-39.268,3.937-53,13-3.064,21.674-18.181,36.068-21,56,10.077,8.112,32.543,38.948,29,57-8.253,12.066-66.757,76.312-85,71-17.874-5.205-26.238-26.1-47-29-7.871,4.265-51.791,19.363-55,24-12.9,18.632.49,49.754-21,60-16.711,8.421-103.49,2.44-110-7q-5.5-26-11-52c-13.862-9.377-42.069-21.9-59-25-50.623,48.17-60.727,27.3-100-12-8.106-8.112-34.5-23.882-29-43l29-43c-0.482-12.016-16.972-48.564-23-60L60,414c-12.3-8.37-16.129-99.1-5-114,10.429-13.963,45.4-10.4,61-19,1.849-9.96,8.717-17.755,4-28-39.225-9.449-65.175-65.42-45-112C90.362,105.531,112.255,103.024,149,89ZM1900,265h46c15.14,5.677,7.16,45.46,1,54h-47V459c0,17.179,3.79,46.193-3,58-18.18,4.993-48.65,6.576-63-3V319h-88V459c0,17.179,3.79,46.193-3,58-18.18,4.993-48.65,6.576-63-3V319c-13.4.4-29.35,1.188-37-4-3.49-12.271-7-42.394,4-49l33-1c-1.58-72.725,13.85-104.015,77-113,17.22-2.45,37.99,2.65,49,10,3.25,12.086,4.14,32.687,1,46-1.33,1-2.67,2-4,3-48.42-7.318-58.37-5.364-57,54h88c-1.49-70.693,10.83-106.354,71-116,20.41-3.272,42.23,1.285,55,9,4.24,13.938,6.11,36.683-1,49l-21-5C1898.43,194.68,1899.29,231.658,1900,265ZM942,170c41.286-.012,86.99,5.634,87,49,0,12.656-.57,21.535-5,29-29.8-1.179-85.445-49.78-115-7-5.29,7.657-10.1,21.6-5,34,8.592,20.886,36.166,28.926,57,38,48.1,20.949,108.31,58.221,84,137-3.96,12.843-11.42,25.284-19,35-31.9,40.9-130.633,54.372-184,22-12.841-7.789-29.582-52.9-10-65,11.186-3.674,26.314,10.708,35,15,27.295,13.488,83.269,19.4,102-6,40.71-55.2-68.774-82.515-95-100-49.326-32.886-60.689-117.016-9-157,12.754-9.866,30.766-17.075,49-21Zm275,95c17.21-.319,46.1-3.525,58,3,4.23,15.253,5.6,37.115-2,50l-56,1c-0.44,33.59-6.8,134.249,11,146,15.31,10.107,36.92-5.392,48,0,2.68,15.656,2.87,32.235-1,47-8.94,6.452-20.28,11.163-35,12-114.37,6.5-90.92-98.554-90-205-11.79.345-27.76,1.332-35-3-4.6-14.738-5.97-37.7,2-50l33-1q0.495-29,1-58c10.56-5.648,57.27-12.559,65,1Q1216.495,236.5,1217,265ZM366,229l-48,8c-28.231,12.294-57.52,40.1-69,69-34.986,88.078,37.888,179.2,119,175,84.268-4.362,152.233-86.822,115-178C464.734,258.268,423.637,235.925,366,229ZM1497,368c2.61-95.1-80.78-50.752-125-34-15.37-7.1-16.36-41.868-3-52,25.45-19.307,85.86-31.007,130-20,72.29,18.026,64,73.64,64,161q-0.495,46.5-1,93c-13.57,6.768-41.77,7.23-54-1V493c-12.55,9.61-23.83,20.891-40,27-60.27,22.764-112.99-12.261-121-61C1333.5,376.861,1423.25,367.135,1497,368Zm535-105c14.66-.248,28.65.319,40,3,11.38,16.689,15.09,39.612,23,60q19.995,56,40,112h1q16.5-51.995,33-104c6.98-22.053,10.69-50.432,23-68,14.8-2.952,51.34-7.726,59,5,6.15,9.509-20.23,78.476-25,92q-42.495,122.488-85,245c-12.77,11.116-57.18,9.364-71,1-0.04-24.76,23.15-69.126,33-90-15.15-7.488-18.59-35.711-25-52q-25.995-67.994-52-136c-4.2-11.059-21.3-47.711-17-59C2013.5,263.128,2022.16,266.549,2032,263ZM1497,410c-38.95-1.369-94.74-1.684-84,45,10.21,44.356,69.63,15.006,84-5V410Z"/>
</svg>
