<?xml version="1.0" encoding="utf-8"?>
<!-- Generator: Adobe Illustrator 16.0.2, SVG Export Plug-In . SVG Version: 6.00 Build 0)  -->
<!DOCTYPE svg PUBLIC "-//W3C//DTD SVG 1.1//EN" "http://www.w3.org/Graphics/SVG/1.1/DTD/svg11.dtd">
<svg version="1.1" id="Layer_1" xmlns="http://www.w3.org/2000/svg" xmlns:xlink="http://www.w3.org/1999/xlink" x="0px" y="0px"
	 width="567.121px" height="171.121px" viewBox="0 0 567.121 171.121" enable-background="new 0 0 567.121 171.121"
	 xml:space="preserve">
<path fill="#FFFFFF" d="M160.8,70.32c-4-0.8-8-1.6-12-2.4c-0.88-2.08-1.76-4.16-2.64-6.24c4.18-3.41,7.97-4.52,10.8-9.36
	c5.61-9.61,0.41-22.54-6.24-27.12c-10.93-7.52-27.17-2.37-31.2,8.16c-2.94,0.47-8.57-3.48-11.76-4.56
	c-4.32-0.88-8.64-1.76-12.96-2.64c-15.77-2.62-27.67,3.93-37.92,7.44c-1.2-1.68-2.4-3.36-3.6-5.04c-3.49-4.43-9.51-7.31-17.52-7.2
	C26.94,24.73,21.69,25.33,18,33.84c-4.84,11.18,1.39,24.61,10.8,26.88c1.13,2.46-0.52,4.33-0.96,6.72C24.1,69.5,15.7,68.65,13.2,72
	c-2.67,3.58-1.75,25.35,1.2,27.36c4.32,0.96,8.64,1.92,12.96,2.88c1.45,2.74,5.41,11.521,5.52,14.4
	c-2.32,3.439-4.64,6.88-6.96,10.32c-1.32,4.59,5.02,8.369,6.96,10.319c9.43,9.431,11.85,14.44,24,2.88c4.06,0.74,10.83,3.75,14.16,6
	c0.88,4.16,1.76,8.32,2.64,12.48c1.56,2.27,22.39,3.7,26.4,1.68c5.16-2.46,1.94-9.93,5.04-14.399c0.77-1.11,11.31-4.74,13.2-5.761
	c4.98,0.7,6.99,5.71,11.28,6.96c4.38,1.271,18.42-14.14,20.4-17.04c0.85-4.329-4.54-11.729-6.96-13.68
	c0.68-4.78,4.31-8.24,5.04-13.439c3.3-2.181,8.66-1.5,12.72-3.12c0.96-0.721,1.92-1.44,2.88-2.16v-25.2
	C162.72,71.76,161.76,71.04,160.8,70.32z M88.32,115.44c-19.47,1.01-36.96-20.86-28.56-42c2.76-6.94,9.78-13.61,16.56-16.56
	c3.84-0.64,7.68-1.28,11.52-1.92c13.83,1.66,23.7,7.02,28.08,17.76C124.86,94.6,108.54,114.39,88.32,115.44z"/>
<path fill="#FFFFFF" d="M456,63.6c3.68,0,7.361,0,11.041,0c3.633,1.363,1.717,10.911,0.24,12.96c-3.76,0-7.521,0-11.281,0
	c0,11.199,0,22.4,0,33.6c0,4.123,0.91,11.086-0.719,13.92c-4.363,1.198-11.678,1.578-15.121-0.72c0-15.599,0-31.202,0-46.8
	c-7.039,0-14.08,0-21.119,0c0,11.199,0,22.4,0,33.6c0,4.123,0.908,11.086-0.721,13.92c-4.363,1.198-11.676,1.578-15.119-0.72
	c0-15.599,0-31.202,0-46.8c-3.215,0.096-7.043,0.285-8.881-0.96c-0.838-2.945-1.68-10.174,0.961-11.76
	c2.639-0.08,5.279-0.16,7.92-0.24c-0.379-17.454,3.324-24.963,18.479-27.12c4.135-0.588,9.119,0.636,11.762,2.4
	c0.779,2.901,0.992,7.845,0.238,11.04c-0.318,0.24-0.639,0.48-0.959,0.72c-11.621-1.756-14.01-1.287-13.68,12.96
	c7.039,0,14.08,0,21.119,0c-0.357-16.966,2.6-25.525,17.041-27.84c4.896-0.786,10.133,0.308,13.199,2.16
	c1.018,3.345,1.469,8.804-0.24,11.76c-1.68-0.4-3.359-0.8-5.039-1.2C455.625,46.723,455.83,55.598,456,63.6z"/>
<path fill="#FFFFFF" d="M226.08,40.8c9.908-0.003,20.876,1.352,20.88,11.76c0.001,3.038-0.138,5.168-1.2,6.96
	c-7.153-0.283-20.506-11.947-27.6-1.68c-1.27,1.837-2.425,5.183-1.2,8.16c2.062,5.013,8.68,6.942,13.68,9.12
	c11.544,5.028,25.995,13.973,20.16,32.879c-0.951,3.084-2.741,6.068-4.56,8.4c-7.656,9.816-31.352,13.049-44.16,5.28
	c-3.082-1.87-7.1-12.696-2.4-15.601c2.684-0.881,6.315,2.57,8.4,3.601c6.551,3.237,19.984,4.655,24.48-1.44
	c9.771-13.248-16.506-19.804-22.8-24c-11.838-7.893-14.565-28.084-2.16-37.68c3.061-2.368,7.384-4.098,11.76-5.04
	C221.6,41.28,223.84,41.04,226.08,40.8z"/>
<path fill="#FFFFFF" d="M292.08,63.6c4.131-0.077,11.063-0.846,13.92,0.72c1.016,3.661,1.346,8.907-0.48,12
	c-4.479,0.08-8.959,0.16-13.439,0.24c-0.105,8.062-1.631,32.221,2.641,35.04c3.674,2.426,8.859-1.294,11.52,0
	c0.645,3.757,0.689,7.735-0.24,11.28c-2.146,1.549-4.867,2.679-8.399,2.879c-27.45,1.562-21.821-23.652-21.6-49.199
	c-2.831,0.083-6.663,0.32-8.4-0.72c-1.104-3.537-1.434-9.049,0.48-12c2.64-0.08,5.28-0.16,7.92-0.24c0.08-4.64,0.16-9.28,0.24-13.92
	c2.533-1.355,13.745-3.014,15.599,0.24C291.919,54.479,292,59.041,292.08,63.6z"/>
<path fill="#FFFFFF" d="M359.76,62.88c-10.59-2.64-25.09,0.17-31.2,4.8c-3.21,2.43-2.97,10.78,0.72,12.48
	c10.61-4.02,30.63-14.66,30,8.16c-17.7-0.21-39.239,2.13-36,21.84c1.92,11.7,14.58,20.101,29.04,14.641
	c3.88-1.471,6.59-4.17,9.601-6.48v5.28c2.93,1.979,9.699,1.86,12.96,0.24c0.08-7.44,0.16-14.88,0.239-22.32
	C375.12,80.55,377.11,67.21,359.76,62.88z M359.28,108c-3.45,4.8-17.71,11.85-20.16,1.199C336.541,98,349.93,98.07,359.28,98.4V108z
	"/>
<path fill="#FFFFFF" d="M487.679,63.12c3.52-0.06,6.877,0.077,9.602,0.72c2.73,4.005,3.621,9.507,5.52,14.4
	c3.199,8.958,6.4,17.921,9.6,26.88c0.08,0,0.16,0,0.24,0c2.641-8.32,5.279-16.642,7.92-24.96c1.676-5.293,2.564-12.104,5.52-16.32
	c3.553-0.709,12.322-1.854,14.16,1.2c1.475,2.282-4.854,18.834-6,22.081c-6.801,19.598-13.602,39.201-20.4,58.799
	c-3.064,2.668-13.721,2.248-17.039,0.24c-0.01-5.941,5.555-16.59,7.92-21.6c-3.637-1.797-4.461-8.57-6-12.48
	c-4.16-10.879-8.322-21.761-12.48-32.64c-1.008-2.654-5.113-11.451-4.08-14.16C483.242,63.151,485.318,63.972,487.679,63.12z"/>
</svg>
